<svg width="302" height="93" viewBox="0 0 302 93" fill="none" xmlns="http://www.w3.org/2000/svg">
<path fill-rule="evenodd" clip-rule="evenodd" d="M90.208 92.9827H23V80H90.208V92.9827Z" fill="white"/>
<path fill-rule="evenodd" clip-rule="evenodd" d="M80 1.30259e-06H90V91H80V1.30259e-06Z" fill="white"/>
<path fill-rule="evenodd" clip-rule="evenodd" d="M68.336 25.2587H64.4267V12.936H51.4507V9.02933H68.336V25.2587ZM61.0453 65.068H56.5307V23.3227L39.304 48.3453L39.284 48.3187V48.32L51.4507 65.068H45.3053L10.66 16.4347H16.1227L36.6773 44.7293L36.6533 44.696L56.3067 16.4347H61.0453V65.068ZM38.652 65.044L15.26 33.2573V65.068H10.8213V20.8293L43.1933 65.044H38.652ZM0 76.3747H76.372V-5.33978e-07H0V76.3747Z" fill="white"/>
<path d="M125.764 49.6265V22.6985L114.698 43.0905H111.447L100.33 22.6985V49.6265H94.4551V12.2105H100.748L113.072 35.0812L125.398 12.2105H131.69V49.6265H125.764Z" fill="white"/>
<path d="M155.604 44.5679C157.563 44.5679 159.188 44.1799 160.482 43.4079C161.775 42.6359 162.815 41.6252 163.602 40.3759C164.388 39.1305 164.948 37.7065 165.28 36.1092C165.612 34.5105 165.779 32.8679 165.779 31.1812V12.2105H171.706V31.1812C171.706 33.7465 171.408 36.1612 170.812 38.4279C170.219 40.6945 169.275 42.6785 167.982 44.3812C166.688 46.0865 165.019 47.4319 162.972 48.4145C160.927 49.3985 158.47 49.8892 155.604 49.8892C152.632 49.8892 150.126 49.3719 148.079 48.3359C146.034 47.2999 144.382 45.9105 143.123 44.1719C141.864 42.4332 140.955 40.4399 140.396 38.1905C139.836 35.9425 139.556 33.6065 139.556 31.1812V12.2105H145.43V31.1812C145.43 32.9025 145.595 34.5639 145.928 36.1612C146.26 37.7612 146.819 39.1839 147.607 40.4305C148.394 41.6785 149.442 42.6785 150.752 43.4345C152.064 44.1892 153.683 44.5679 155.604 44.5679Z" fill="white"/>
<path d="M179.518 49.6265V12.2105H185.392V44.4092H205.374V49.6265H179.518Z" fill="white"/>
<path d="M210.146 49.6265V12.2105H216.019V44.4092H236.002V49.6265H210.146Z" fill="white"/>
<path d="M266.314 44.409V49.6264H240.774V12.2104H265.842V17.4277H246.646V28.073H263.271V32.973H246.646V44.409H266.314Z" fill="white"/>
<path d="M278.271 31.3928H288.55C289.39 31.3928 290.15 31.2074 290.831 30.8394C291.514 30.4701 292.099 29.9608 292.588 29.3101C293.078 28.6608 293.462 27.9141 293.743 27.0714C294.022 26.2288 294.162 25.3314 294.162 24.3834C294.162 23.4354 293.995 22.5394 293.664 21.6954C293.331 20.8514 292.894 20.1154 292.354 19.4821C291.81 18.8501 291.18 18.3501 290.464 17.9808C289.747 17.6128 289.004 17.4274 288.236 17.4274H278.271V31.3928ZM272.398 49.6261V12.2101H288.603C290.28 12.2101 291.828 12.5621 293.244 13.2648C294.659 13.9674 295.875 14.8888 296.888 16.0301C297.902 17.1728 298.698 18.4741 299.275 19.9301C299.852 21.3888 300.14 22.8741 300.14 24.3834C300.14 25.6474 299.966 26.8594 299.616 28.0194C299.266 29.1794 298.776 30.2528 298.147 31.2341C297.519 32.2194 296.747 33.0714 295.84 33.7888C294.93 34.5101 293.934 35.0474 292.851 35.3981L301.608 49.6261H294.948L286.871 36.6101H278.271V49.6261H272.398Z" fill="white"/>
<path d="M101.345 58.025C100.992 57.8556 100.508 57.773 99.8931 57.773H96.7171V61.905H99.8931C100.609 61.905 101.192 61.749 101.637 61.4423C102.085 61.1343 102.308 60.5903 102.308 59.8103C102.308 58.9343 101.985 58.3383 101.345 58.025ZM95.1091 56.385H100.42C101.469 56.385 102.317 56.6836 102.962 57.281C103.608 57.8796 103.929 58.7196 103.929 59.8023C103.929 60.733 103.644 61.5436 103.066 62.233C102.492 62.9223 101.609 63.2676 100.424 63.2676H96.7171V68.309H95.1091V56.385Z" fill="white"/>
<path d="M106.669 56.3843H108.276V66.8869H114.229V68.3083H106.669V56.3843Z" fill="white"/>
<path d="M122.675 63.4221L120.849 58.1541L118.949 63.4221H122.675ZM120.009 56.3848H121.824L126.132 68.3088H124.369L123.131 64.7368H118.477L117.189 68.3088H115.54L120.009 56.3848Z" fill="white"/>
<path d="M128.259 56.3843H130.153L136.067 66.0176V56.3843H137.603V68.3083H135.797L129.793 58.6869V68.3083H128.259V56.3843Z" fill="white"/>
<path d="M140.883 56.3843H142.776L148.692 66.0176V56.3843H150.228V68.3083H148.423L142.418 58.6869V68.3083H140.883V56.3843Z" fill="white"/>
<path d="M153.87 56.3841H155.495V68.3081H153.87V56.3841Z" fill="white"/>
<path d="M158.781 56.3843H160.675L166.592 66.0176V56.3843H168.128V68.3083H166.321L160.316 58.6869V68.3083H158.781V56.3843Z" fill="white"/>
<path d="M179.305 56.7255C180.466 57.3481 181.177 58.4388 181.438 59.9961H179.846C179.657 59.1255 179.265 58.4908 178.669 58.0921C178.071 57.6961 177.321 57.4975 176.413 57.4975C175.338 57.4975 174.433 57.9108 173.697 58.7388C172.961 59.5668 172.594 60.8001 172.594 62.4401C172.594 63.8588 172.897 65.0121 173.503 65.9015C174.11 66.7921 175.101 67.2361 176.471 67.2361C177.522 67.2361 178.39 66.9228 179.081 66.2988C179.77 65.6748 180.121 64.6641 180.138 63.2668H176.422V61.9281H181.631V68.3095H180.598L180.211 66.7748C179.675 67.3748 179.201 67.7908 178.787 68.0241C178.094 68.4228 177.213 68.6241 176.142 68.6241C174.759 68.6241 173.569 68.1668 172.573 67.2535C171.489 66.1055 170.945 64.5308 170.945 62.5308C170.945 60.5321 171.477 58.9441 172.538 57.7641C173.546 56.6401 174.851 56.0775 176.454 56.0775C177.553 56.0775 178.502 56.2935 179.305 56.7255Z" fill="white"/>
<path d="M194.729 60.1291C195.044 59.7624 195.201 59.3544 195.201 58.9077C195.201 58.5557 195.087 58.2544 194.856 57.9984C194.625 57.7464 194.315 57.6184 193.924 57.6184C193.331 57.6184 192.917 57.8197 192.688 58.2171C192.571 58.4237 192.512 58.6477 192.512 58.8891C192.512 59.2197 192.601 59.5357 192.783 59.8371C192.964 60.1411 193.264 60.5331 193.685 61.0117C194.191 60.6517 194.539 60.3571 194.729 60.1291V60.1291ZM194.844 66.8864C195.273 66.6117 195.603 66.3037 195.833 65.9624L193.161 62.6757C192.408 63.1837 191.916 63.5731 191.685 63.8437C191.331 64.2504 191.153 64.7451 191.153 65.3291C191.153 65.9624 191.383 66.4491 191.841 66.7904C192.3 67.1317 192.789 67.3011 193.309 67.3011C193.904 67.3011 194.417 67.1624 194.844 66.8864V66.8864ZM191.352 60.2144C191.184 59.8224 191.097 59.4384 191.097 59.0717C191.097 58.3037 191.356 57.6651 191.869 57.1597C192.387 56.6544 193.076 56.3997 193.94 56.3997C194.76 56.3997 195.404 56.6371 195.865 57.1064C196.327 57.5771 196.557 58.1397 196.557 58.7931C196.557 59.5557 196.317 60.2251 195.841 60.7984C195.563 61.1344 195.096 61.5197 194.443 61.9571L196.597 64.5584C196.741 64.1251 196.84 63.8011 196.896 63.5877C196.952 63.3744 197.009 63.0757 197.067 62.6917H198.448C198.357 63.4544 198.175 64.1864 197.901 64.8864C197.628 65.5877 197.491 65.8704 197.491 65.7331L199.593 68.3091H197.724L196.613 66.9437C196.175 67.4264 195.771 67.7771 195.407 67.9984C194.768 68.3891 194.033 68.5851 193.201 68.5851C191.973 68.5851 191.08 68.2491 190.521 67.5824C189.964 66.9131 189.684 66.1597 189.684 65.3224C189.684 64.4184 189.955 63.6624 190.497 63.0557C190.829 62.6891 191.451 62.2277 192.359 61.6771C191.857 61.0984 191.521 60.6104 191.352 60.2144" fill="white"/>
<path d="M207.211 56.3843H208.818V66.8869H214.771V68.3083H207.211V56.3843Z" fill="white"/>
<path d="M225.444 65.689C226.079 64.6677 226.395 63.4944 226.395 62.1677C226.395 60.765 226.03 59.637 225.3 58.7797C224.57 57.925 223.572 57.497 222.307 57.497C221.08 57.497 220.079 57.921 219.303 58.769C218.528 59.6157 218.139 60.865 218.139 62.517C218.139 63.8384 218.472 64.9517 219.138 65.861C219.802 66.7677 220.88 67.2197 222.372 67.2197C223.79 67.2197 224.812 66.7104 225.444 65.689V65.689ZM226.863 58.0904C227.648 59.145 228.042 60.4944 228.042 62.1397C228.042 63.921 227.592 65.3997 226.694 66.5797C225.638 67.965 224.134 68.6584 222.178 68.6584C220.352 68.6584 218.918 68.0504 217.872 66.8397C216.942 65.6704 216.475 64.193 216.475 62.4077C216.475 60.7957 216.874 59.4157 217.672 58.269C218.695 56.7957 220.206 56.061 222.21 56.061C224.306 56.061 225.858 56.7357 226.863 58.0904" fill="white"/>
<path d="M238.531 56.7255C239.695 57.3481 240.406 58.4388 240.667 59.9961H239.075C238.886 59.1255 238.493 58.4908 237.895 58.0921C237.299 57.6961 236.55 57.4975 235.642 57.4975C234.566 57.4975 233.661 57.9108 232.925 58.7388C232.19 59.5668 231.822 60.8001 231.822 62.4401C231.822 63.8588 232.125 65.0121 232.731 65.9015C233.338 66.7921 234.329 67.2361 235.701 67.2361C236.75 67.2361 237.618 66.9228 238.309 66.2988C238.998 65.6748 239.349 64.6641 239.366 63.2668H235.65V61.9281H240.859V68.3095H239.826L239.438 66.7748C238.903 67.3748 238.429 67.7908 238.015 68.0241C237.322 68.4228 236.441 68.6241 235.37 68.6241C233.987 68.6241 232.798 68.1668 231.802 67.2535C230.717 66.1055 230.174 64.5308 230.174 62.5308C230.174 60.5321 230.705 58.9441 231.766 57.7641C232.775 56.6401 234.079 56.0775 235.683 56.0775C236.782 56.0775 237.73 56.2935 238.531 56.7255Z" fill="white"/>
<path d="M244.543 56.3841H246.167V68.3081H244.543V56.3841Z" fill="white"/>
<path d="M250.504 64.4599C250.54 65.1372 250.693 65.6866 250.963 66.1079C251.476 66.8986 252.381 67.2932 253.677 67.2932C254.259 67.2932 254.788 67.2079 255.265 67.0332C256.188 66.6986 256.649 66.0986 256.649 65.2306C256.649 64.5826 256.455 64.1212 256.063 63.8439C255.667 63.5732 255.047 63.3372 254.201 63.1386L252.643 62.7719C251.628 62.5346 250.908 62.2719 250.484 61.9866C249.755 61.4879 249.388 60.7439 249.388 59.7532C249.388 58.6812 249.749 57.8039 250.467 57.1159C251.183 56.4292 252.2 56.0852 253.516 56.0852C254.727 56.0852 255.755 56.3866 256.6 56.9879C257.447 57.5932 257.869 58.5586 257.869 59.8839H256.36C256.283 59.2452 256.117 58.7546 255.864 58.4132C255.393 57.7906 254.596 57.4812 253.472 57.4812C252.563 57.4812 251.911 57.6812 251.512 58.0826C251.113 58.4826 250.916 58.9466 250.916 59.4786C250.916 60.0612 251.151 60.4879 251.62 60.7599C251.928 60.9332 252.624 61.1506 253.708 61.4079L255.323 61.7906C256.099 61.9759 256.699 62.2252 257.121 62.5452C257.852 63.1026 258.217 63.9106 258.217 64.9719C258.217 66.2919 257.752 67.2359 256.819 67.8039C255.885 68.3746 254.804 68.6572 253.571 68.6572C252.132 68.6572 251.004 68.2772 250.191 67.5199C249.376 66.7679 248.976 65.7492 248.993 64.4599H250.504Z" fill="white"/>
<path d="M269.793 56.3843V57.8043H265.794V68.3083H264.169V57.8043H260.172V56.3843H269.793Z" fill="white"/>
<path d="M272.312 56.3841H273.935V68.3081H272.312V56.3841Z" fill="white"/>
<path d="M285.615 57.2541C286.435 58.0488 286.889 58.9515 286.979 59.9648H285.413C285.239 59.1955 284.892 58.5875 284.369 58.1381C283.849 57.6888 283.117 57.4648 282.176 57.4648C281.031 57.4648 280.101 57.8781 279.396 58.7035C278.691 59.5288 278.337 60.7955 278.337 62.5008C278.337 63.8968 278.655 65.0301 279.293 65.8995C279.931 66.7701 280.881 67.2048 282.145 67.2048C283.309 67.2048 284.196 66.7475 284.805 65.8328C285.127 65.3501 285.367 64.7181 285.527 63.9341H287.093C286.955 65.1888 286.497 66.2408 285.719 67.0901C284.789 68.1141 283.532 68.6235 281.952 68.6235C280.588 68.6235 279.444 68.2048 278.519 67.3661C277.3 66.2568 276.691 64.5435 276.691 62.2248C276.691 60.4648 277.147 59.0221 278.063 57.8941C279.052 56.6728 280.419 56.0608 282.159 56.0608C283.643 56.0608 284.796 56.4568 285.615 57.2541Z" fill="white"/>
<path d="M290.897 64.4599C290.932 65.1372 291.087 65.6866 291.356 66.1079C291.869 66.8986 292.775 67.2932 294.072 67.2932C294.651 67.2932 295.183 67.2079 295.659 67.0332C296.583 66.6986 297.043 66.0986 297.043 65.2306C297.043 64.5826 296.848 64.1212 296.457 63.8439C296.06 63.5732 295.439 63.3372 294.593 63.1386L293.036 62.7719C292.021 62.5346 291.3 62.2719 290.876 61.9866C290.148 61.4879 289.783 60.7439 289.783 59.7532C289.783 58.6812 290.141 57.8039 290.86 57.1159C291.577 56.4292 292.592 56.0852 293.909 56.0852C295.12 56.0852 296.148 56.3866 296.995 56.9879C297.84 57.5932 298.263 58.5586 298.263 59.8839H296.753C296.676 59.2452 296.511 58.7546 296.257 58.4132C295.787 57.7906 294.989 57.4812 293.865 57.4812C292.956 57.4812 292.303 57.6812 291.905 58.0826C291.508 58.4826 291.309 58.9466 291.309 59.4786C291.309 60.0612 291.544 60.4879 292.013 60.7599C292.321 60.9332 293.019 61.1506 294.103 61.4079L295.715 61.7906C296.493 61.9759 297.092 62.2252 297.516 62.5452C298.245 63.1026 298.609 63.9106 298.609 64.9719C298.609 66.2919 298.145 67.2359 297.212 67.8039C296.28 68.3746 295.199 68.6572 293.963 68.6572C292.524 68.6572 291.399 68.2772 290.584 67.5199C289.769 66.7679 289.371 65.7492 289.387 64.4599H290.897Z" fill="white"/>
<path d="M150.228 7.3465C150.228 8.24117 149.503 8.96783 148.607 8.96783C147.711 8.96783 146.985 8.24117 146.985 7.3465C146.985 6.45183 147.711 5.72517 148.607 5.72517C149.503 5.72517 150.228 6.45183 150.228 7.3465Z" fill="white"/>
<path d="M163.455 7.3465C163.455 8.24117 162.729 8.96783 161.833 8.96783C160.937 8.96783 160.212 8.24117 160.212 7.3465C160.212 6.45183 160.937 5.72517 161.833 5.72517C162.729 5.72517 163.455 6.45183 163.455 7.3465Z" fill="white"/>
</svg>
